<svg width="133" height="134" viewBox="0 0 133 134" fill="none" xmlns="http://www.w3.org/2000/svg">
    <g filter="url(#filter0_di_47_25)">
        <path d="M29 13C29 20.1797 23.4036 20 16.5 20C9.59644 20 4 20.1797 4 13C4 5.8203 9.59644 0 16.5 0C23.4036 0 29 5.8203 29 13Z"
              fill="#211E1E"/>
        <path d="M29 13C29 20.1797 23.4036 20 16.5 20C9.59644 20 4 20.1797 4 13C4 5.8203 9.59644 0 16.5 0C23.4036 0 29 5.8203 29 13Z"
              fill="url(#paint0_radial_47_25)" fill-opacity="0.4"/>
    </g>
    <defs>
        <filter id="filter0_di_47_25" x="0" y="0" width="133" height="134" filterUnits="userSpaceOnUse"
                color-interpolation-filters="sRGB">
            <feFlood flood-opacity="0" result="BackgroundImageFix"/>
            <feColorMatrix in="SourceAlpha" type="matrix" values="0 0 0 0 0 0 0 0 0 0 0 0 0 0 0 0 0 0 127 0"
                           result="hardAlpha"/>
            <feOffset dx="50" dy="60"/>
            <feGaussianBlur stdDeviation="27"/>
            <feComposite in2="hardAlpha" operator="out"/>
            <feColorMatrix type="matrix" values="0 0 0 0 0.264705 0 0 0 0 0.271151 0 0 0 0 0.329167 0 0 0 0.3 0"/>
            <feBlend mode="normal" in2="BackgroundImageFix" result="effect1_dropShadow_47_25"/>
            <feBlend mode="normal" in="SourceGraphic" in2="effect1_dropShadow_47_25" result="shape"/>
            <feColorMatrix in="SourceAlpha" type="matrix" values="0 0 0 0 0 0 0 0 0 0 0 0 0 0 0 0 0 0 127 0"
                           result="hardAlpha"/>
            <feOffset/>
            <feGaussianBlur stdDeviation="4"/>
            <feComposite in2="hardAlpha" operator="arithmetic" k2="-1" k3="1"/>
            <feColorMatrix type="matrix" values="0 0 0 0 0.898039 0 0 0 0 0.917647 0 0 0 0 0.937255 0 0 0 0.8 0"/>
            <feBlend mode="normal" in2="shape" result="effect2_innerShadow_47_25"/>
        </filter>
        <radialGradient id="paint0_radial_47_25" cx="0" cy="0" r="1" gradientUnits="userSpaceOnUse"
                        gradientTransform="translate(-0.497519 24.6073) rotate(-36.9266) scale(25.6607 16.3757)">
            <stop stop-color="#E5EAEF"/>
            <stop offset="1" stop-color="#E5EAEF" stop-opacity="0"/>
        </radialGradient>
    </defs>
</svg>
