<svg width="269" height="311" viewBox="0 0 269 311" fill="none" xmlns="http://www.w3.org/2000/svg">
    <g filter="url(#filter0_di_48_37)">
        <path d="M49.2689 83.5C49.2689 146.5 -23.2309 145.5 15.2692 184C72.7692 241.5 49.2689 83.5 114.269 83.5C179.269 83.5 182.151 -0.000173816 114.269 0C77.769 9.34601e-05 49.2689 20.5 49.2689 83.5Z" fill="#211E1E"/>
        <path d="M49.2689 83.5C49.2689 146.5 -23.2309 145.5 15.2692 184C72.7692 241.5 49.2689 83.5 114.269 83.5C179.269 83.5 182.151 -0.000173816 114.269 0C77.769 9.34601e-05 49.2689 20.5 49.2689 83.5Z" fill="url(#paint0_radial_48_37)" fill-opacity="0.4"/>
    </g>
    <defs>
        <filter id="filter0_di_48_37" x="0" y="0" width="268.106" height="310.597" filterUnits="userSpaceOnUse" color-interpolation-filters="sRGB">
            <feFlood flood-opacity="0" result="BackgroundImageFix"/>
            <feColorMatrix in="SourceAlpha" type="matrix" values="0 0 0 0 0 0 0 0 0 0 0 0 0 0 0 0 0 0 127 0" result="hardAlpha"/>
            <feOffset dx="50" dy="60"/>
            <feGaussianBlur stdDeviation="27"/>
            <feComposite in2="hardAlpha" operator="out"/>
            <feColorMatrix type="matrix" values="0 0 0 0 0.264705 0 0 0 0 0.271151 0 0 0 0 0.329167 0 0 0 0.3 0"/>
            <feBlend mode="normal" in2="BackgroundImageFix" result="effect1_dropShadow_48_37"/>
            <feBlend mode="normal" in="SourceGraphic" in2="effect1_dropShadow_48_37" result="shape"/>
            <feColorMatrix in="SourceAlpha" type="matrix" values="0 0 0 0 0 0 0 0 0 0 0 0 0 0 0 0 0 0 127 0" result="hardAlpha"/>
            <feOffset/>
            <feGaussianBlur stdDeviation="7"/>
            <feComposite in2="hardAlpha" operator="arithmetic" k2="-1" k3="1"/>
            <feColorMatrix type="matrix" values="0 0 0 0 0.898039 0 0 0 0 0.917647 0 0 0 0 0.937255 0 0 0 0.8 0"/>
            <feBlend mode="normal" in2="shape" result="effect2_innerShadow_48_37"/>
        </filter>
        <radialGradient id="paint0_radial_48_37" cx="0" cy="0" r="1" gradientUnits="userSpaceOnUse" gradientTransform="translate(156.9 274.959) rotate(-109.125) scale(392.478 148.034)">
            <stop stop-color="#E5EAEF"/>
            <stop offset="1" stop-color="#E5EAEF" stop-opacity="0"/>
        </radialGradient>
    </defs>
</svg>
