<svg width="217" height="578" viewBox="0 0 217 578" fill="none" xmlns="http://www.w3.org/2000/svg">
    <g filter="url(#filter0_di_47_19)">
        <path d="M97.4073 98.8596C234.907 -38.6404 16.9072 -27.1407 -109.093 98.8596C-235.093 224.86 -197.093 316.36 -87.0927 426.36C22.9073 536.359 212.907 376.86 212.907 258.36C212.907 139.86 -40.0927 236.36 97.4073 98.8596Z" fill="#211E1E"/>
        <path d="M97.4073 98.8596C234.907 -38.6404 16.9072 -27.1407 -109.093 98.8596C-235.093 224.86 -197.093 316.36 -87.0927 426.36C22.9073 536.359 212.907 376.86 212.907 258.36C212.907 139.86 -40.0927 236.36 97.4073 98.8596Z" fill="url(#paint0_radial_47_19)" fill-opacity="0.4"/>
    </g>
    <defs>
        <filter id="filter0_di_47_19" x="-292" y="0" width="508.907" height="577.291" filterUnits="userSpaceOnUse" color-interpolation-filters="sRGB">
            <feFlood flood-opacity="0" result="BackgroundImageFix"/>
            <feColorMatrix in="SourceAlpha" type="matrix" values="0 0 0 0 0 0 0 0 0 0 0 0 0 0 0 0 0 0 127 0" result="hardAlpha"/>
            <feOffset dx="-50" dy="60"/>
            <feGaussianBlur stdDeviation="27"/>
            <feComposite in2="hardAlpha" operator="out"/>
            <feColorMatrix type="matrix" values="0 0 0 0 0.264705 0 0 0 0 0.271151 0 0 0 0 0.329167 0 0 0 0.3 0"/>
            <feBlend mode="normal" in2="BackgroundImageFix" result="effect1_dropShadow_47_19"/>
            <feBlend mode="normal" in="SourceGraphic" in2="effect1_dropShadow_47_19" result="shape"/>
            <feColorMatrix in="SourceAlpha" type="matrix" values="0 0 0 0 0 0 0 0 0 0 0 0 0 0 0 0 0 0 127 0" result="hardAlpha"/>
            <feOffset/>
            <feGaussianBlur stdDeviation="12"/>
            <feComposite in2="hardAlpha" operator="arithmetic" k2="-1" k3="1"/>
            <feColorMatrix type="matrix" values="0 0 0 0 0.898039 0 0 0 0 0.917647 0 0 0 0 0.937255 0 0 0 0.8 0"/>
            <feBlend mode="normal" in2="shape" result="effect2_innerShadow_47_19"/>
        </filter>
        <radialGradient id="paint0_radial_47_19" cx="0" cy="0" r="1" gradientUnits="userSpaceOnUse" gradientTransform="translate(-227.276 490.603) rotate(-39.8201) scale(502.548 328.437)">
            <stop stop-color="#E5EAEF"/>
            <stop offset="1" stop-color="#E5EAEF" stop-opacity="0"/>
        </radialGradient>
    </defs>
</svg>
