<svg width="372" height="660" viewBox="0 0 372 660" fill="none" xmlns="http://www.w3.org/2000/svg">
    <g filter="url(#filter0_di_39_2)">
        <path d="M108.338 445.207C75.5559 584.398 283.451 550.336 389.155 511.343C559.214 448.611 520.288 169.604 446.769 50.7859C354.869 -97.7367 148.832 116.229 239.987 263.549C331.143 410.869 141.12 306.015 108.338 445.207Z" fill="#211E1E"/>
        <path d="M108.338 445.207C75.5559 584.398 283.451 550.336 389.155 511.343C559.214 448.611 520.288 169.604 446.769 50.7859C354.869 -97.7367 148.832 116.229 239.987 263.549C331.143 410.869 141.12 306.015 108.338 445.207Z" fill="url(#paint0_radial_39_2)" fill-opacity="0.4"/>
    </g>
    <defs>
        <filter id="filter0_di_39_2" x="0.871857" y="0.553467" width="512.568" height="659.098" filterUnits="userSpaceOnUse" color-interpolation-filters="sRGB">
            <feFlood flood-opacity="0" result="BackgroundImageFix"/>
            <feColorMatrix in="SourceAlpha" type="matrix" values="0 0 0 0 0 0 0 0 0 0 0 0 0 0 0 0 0 0 127 0" result="hardAlpha"/>
            <feOffset dx="-50" dy="60"/>
            <feGaussianBlur stdDeviation="27"/>
            <feComposite in2="hardAlpha" operator="out"/>
            <feColorMatrix type="matrix" values="0 0 0 0 0.264705 0 0 0 0 0.271151 0 0 0 0 0.329167 0 0 0 0.3 0"/>
            <feBlend mode="normal" in2="BackgroundImageFix" result="effect1_dropShadow_39_2"/>
            <feBlend mode="normal" in="SourceGraphic" in2="effect1_dropShadow_39_2" result="shape"/>
            <feColorMatrix in="SourceAlpha" type="matrix" values="0 0 0 0 0 0 0 0 0 0 0 0 0 0 0 0 0 0 127 0" result="hardAlpha"/>
            <feOffset/>
            <feGaussianBlur stdDeviation="12"/>
            <feComposite in2="hardAlpha" operator="arithmetic" k2="-1" k3="1"/>
            <feColorMatrix type="matrix" values="0 0 0 0 0.898039 0 0 0 0 0.917647 0 0 0 0 0.937255 0 0 0 0.8 0"/>
            <feBlend mode="normal" in2="shape" result="effect2_innerShadow_39_2"/>
        </filter>
        <radialGradient id="paint0_radial_39_2" cx="0" cy="0" r="1" gradientUnits="userSpaceOnUse" gradientTransform="translate(527.801 21.5505) rotate(140.935) scale(516.187 331.816)">
            <stop stop-color="#E5EAEF"/>
            <stop offset="1" stop-color="#E5EAEF" stop-opacity="0"/>
        </radialGradient>
    </defs>
</svg>
